<?xml version="1.0" standalone="no"?>
<!DOCTYPE svg PUBLIC "-//W3C//DTD SVG 20010904//EN"
 "http://www.w3.org/TR/2001/REC-SVG-20010904/DTD/svg10.dtd">
<svg version="1.0" xmlns="http://www.w3.org/2000/svg"
 width="50.000000pt" height="50.000000pt" viewBox="0 0 50.000000 50.000000"
 preserveAspectRatio="xMidYMid meet">

<g transform="translate(0.000000,50.000000) scale(0.100000,-0.100000)"
fill="#FFFFFF" stroke="none">
<path d="M183 440 c-10 -24 -24 -40 -44 -47 -37 -14 -37 -28 1 -42 17 -5 30
-15 30 -20 0 -6 7 -11 16 -11 8 0 12 5 9 10 -3 6 3 10 15 10 12 0 18 -4 15
-10 -4 -6 7 -10 25 -10 18 0 29 4 25 10 -3 6 3 10 15 10 12 0 18 -4 15 -10 -3
-5 1 -10 9 -10 9 0 16 5 16 11 0 5 14 15 30 20 37 14 38 28 2 41 -17 7 -33 24
-43 47 -15 36 -17 37 -69 37 -52 0 -53 -1 -67 -36z"/>
<path d="M64 287 c-2 -7 -3 -58 -2 -113 l3 -99 61 -3 61 -3 7 32 c3 17 6 42 6
55 0 13 5 24 11 24 8 0 9 -18 5 -62 -8 -71 -11 -78 -32 -78 -8 0 -14 -4 -14
-10 0 -6 33 -10 80 -10 47 0 80 4 80 10 0 6 -6 10 -14 10 -21 0 -24 7 -32 78
-4 44 -3 62 5 62 6 0 11 -11 11 -24 0 -13 3 -38 6 -55 l7 -32 61 3 61 3 0 110
0 110 -183 3 c-145 2 -183 0 -188 -11z"/>
</g>
</svg>
